Light Wide — UC.ufo
<glyph name="A" format="1">
  <advance width="1497"/>
  <unicode hex="0041"/>
  <outline>
    <contour>
      <point x="884" y="1486" type="move" name="top"/>
    </contour>
    <contour>
      <point x="1243" y="20" type="move" name="ogonek"/>
    </contour>
    <contour>
      <point x="660" y="0" type="move" name="bottom"/>
    </contour>
    <contour>
      <point x="-113" y="70" type="line"/>
      <point x="-121" y="0" type="line"/>
      <point x="392" y="0" type="line"/>
      <point x="398" y="70" type="line"/>
      <point x="196" y="94" type="line"/>
      <point x="804" y="1257" type="line"/>
      <point x="889" y="1432" type="line"/>
      <point x="847" y="1438" type="line"/>
      <point x="874" y="1246" type="line"/>
      <point x="1104" y="92" type="line"/>
      <point x="903" y="70" type="line"/>
      <point x="899" y="0" type="line"/>
      <point x="1446" y="0" type="line"/>
      <point x="1450" y="70" type="line"/>
      <point x="1266" y="96" type="line"/>
      <point x="962" y="1498" type="line"/>
      <point x="798" y="1498" type="line"/>
      <point x="39" y="92" type="line"/>
    </contour>
    <contour>
      <point x="393" y="545" type="line"/>
      <point x="343" y="447" type="line"/>
      <point x="1071" y="447" type="line"/>
      <point x="1052" y="545" type="line"/>
    </contour>
  </outline>
</glyph>
<glyph name="B" format="1">
  <advance width="1377"/>
  <unicode hex="0042"/>
  <outline>
    <contour>
      <point x="856" y="1486" type="move" name="top"/>
    </contour>
    <contour>
      <point x="645" y="0" type="move" name="bottom"/>
    </contour>
    <contour>
      <point x="534" y="-14" type="curve"/>
      <point x="923" y="-14"/>
      <point x="1269" y="124"/>
      <point x="1258" y="478" type="curve"/>
      <point x="1253" y="650"/>
      <point x="1099" y="768"/>
      <point x="918" y="788" type="curve"/>
      <point x="1132" y="842"/>
      <point x="1265" y="976"/>
      <point x="1258" y="1190" type="curve"/>
      <point x="1254" y="1356"/>
      <point x="1107" y="1500"/>
      <point x="771" y="1500" type="curve"/>
      <point x="661" y="1500"/>
      <point x="565" y="1488"/>
      <point x="466" y="1486" type="curve"/>
      <point x="206" y="1486" type="line"/>
      <point x="198" y="1406" type="line"/>
      <point x="345" y="1386" type="line"/>
      <point x="180" y="94" type="line"/>
      <point x="15" y="70" type="line"/>
      <point x="7" y="0" type="line"/>
      <point x="245" y="0" type="line" smooth="yes"/>
      <point x="319" y="0"/>
      <point x="451" y="-14"/>
    </contour>
    <contour>
      <point x="329" y="112" type="curve"/>
      <point x="332" y="29" type="line"/>
      <point x="429" y="787" type="line"/>
      <point x="394" y="713" type="line"/>
      <point x="446" y="715"/>
      <point x="544" y="718"/>
      <point x="727" y="718" type="curve"/>
      <point x="953" y="718"/>
      <point x="1083" y="634"/>
      <point x="1087" y="460" type="curve"/>
      <point x="1094" y="182"/>
      <point x="863" y="84"/>
      <point x="570" y="84" type="curve"/>
      <point x="513" y="84"/>
      <point x="318" y="93"/>
    </contour>
    <contour>
      <point x="384" y="822" type="curve"/>
      <point x="423" y="747" type="line"/>
      <point x="515" y="1469" type="line"/>
      <point x="479" y="1392" type="line"/>
      <point x="506" y="1399"/>
      <point x="679" y="1408"/>
      <point x="736" y="1408" type="curve"/>
      <point x="989" y="1408"/>
      <point x="1095" y="1326"/>
      <point x="1098" y="1170" type="curve"/>
      <point x="1105" y="932"/>
      <point x="924" y="820"/>
      <point x="693" y="820" type="curve"/>
      <point x="598" y="820"/>
      <point x="464" y="817"/>
    </contour>
  </outline>
</glyph>
<glyph name="C" format="1">
  <advance width="1395"/>
  <unicode hex="0043"/>
  <outline>
    <contour>
      <point x="896" y="1486" type="move" name="top"/>
    </contour>
    <contour>
      <point x="689" y="0" type="move" name="bottom"/>
    </contour>
    <contour>
      <point x="671" y="-16" type="curve"/>
      <point x="894" y="-16"/>
      <point x="1075" y="46"/>
      <point x="1160" y="72" type="curve"/>
      <point x="1200" y="393" type="line"/>
      <point x="1099" y="393" type="line"/>
      <point x="1078" y="321"/>
      <point x="1054" y="246"/>
      <point x="1033" y="176" type="curve"/>
      <point x="975" y="112"/>
      <point x="816" y="82"/>
      <point x="701" y="82" type="curve"/>
      <point x="392" y="82"/>
      <point x="274" y="361"/>
      <point x="266" y="629" type="curve"/>
      <point x="253" y="968"/>
      <point x="443" y="1406"/>
      <point x="870" y="1406" type="curve"/>
      <point x="1032" y="1406"/>
      <point x="1102" y="1381"/>
      <point x="1152" y="1356" type="curve"/>
      <point x="1161" y="1086" type="line"/>
      <point x="1256" y="1086" type="line"/>
      <point x="1319" y="1442" type="line"/>
      <point x="1248" y="1452"/>
      <point x="1095" y="1502"/>
      <point x="887" y="1502" type="curve"/>
      <point x="454" y="1502"/>
      <point x="78" y="1150"/>
      <point x="97" y="613" type="curve"/>
      <point x="104" y="308"/>
      <point x="268" y="-16"/>
    </contour>
  </outline>
</glyph>
<glyph name="D" format="1">
  <advance width="1501"/>
  <unicode hex="0044"/>
  <outline>
    <contour>
      <point x="802" y="1484" type="move" name="top"/>
    </contour>
    <contour>
      <point x="612" y="0" type="move" name="bottom"/>
    </contour>
    <contour>
      <point x="663" y="-16" type="curve"/>
      <point x="1127" y="-16"/>
      <point x="1448" y="382"/>
      <point x="1441" y="900" type="curve"/>
      <point x="1437" y="1260"/>
      <point x="1250" y="1502"/>
      <point x="804" y="1502" type="curve"/>
      <point x="703" y="1502"/>
      <point x="601" y="1488"/>
      <point x="497" y="1486" type="curve"/>
      <point x="222" y="1486" type="line"/>
      <point x="215" y="1406" type="line"/>
      <point x="350" y="1386" type="line"/>
      <point x="170" y="94" type="line"/>
      <point x="5" y="70" type="line"/>
      <point x="-3" y="0" type="line"/>
      <point x="243" y="0" type="line" smooth="yes"/>
      <point x="370" y="0"/>
      <point x="485" y="-16"/>
    </contour>
    <contour>
      <point x="287" y="116" type="curve"/>
      <point x="323" y="33" type="line"/>
      <point x="523" y="1463" type="line"/>
      <point x="472" y="1385" type="line"/>
      <point x="533" y="1393"/>
      <point x="673" y="1408"/>
      <point x="767" y="1408" type="curve"/>
      <point x="1128" y="1408"/>
      <point x="1272" y="1254"/>
      <point x="1276" y="886" type="curve"/>
      <point x="1281" y="494"/>
      <point x="1074" y="80"/>
      <point x="634" y="80" type="curve"/>
      <point x="542" y="80"/>
      <point x="379" y="94"/>
    </contour>
  </outline>
</glyph>
<glyph name="E" format="1">
  <advance width="1343"/>
  <unicode hex="0045"/>
  <outline>
    <contour>
      <point x="148" y="1486" type="move" name="topleft"/>
    </contour>
    <contour>
      <point x="750" y="1486" type="move" name="top"/>
    </contour>
    <contour>
      <point x="1096" y="20" type="move" name="ogonek"/>
    </contour>
    <contour>
      <point x="607" y="0" type="move" name="bottom"/>
    </contour>
    <contour>
      <point x="15" y="70" type="line"/>
      <point x="9" y="0" type="line"/>
      <point x="1134" y="0" type="line"/>
      <point x="1226" y="316" type="line"/>
      <point x="1137" y="342" type="line"/>
      <point x="1022" y="114" type="line"/>
      <point x="339" y="96" type="line"/>
      <point x="427" y="716" type="line"/>
      <point x="955" y="702" type="line"/>
      <point x="959" y="830" type="line"/>
      <point x="434" y="822" type="line"/>
      <point x="512" y="1400" type="line"/>
      <point x="1075" y="1388" type="line"/>
      <point x="1109" y="1180" type="line"/>
      <point x="1203" y="1180" type="line"/>
      <point x="1206" y="1486" type="line"/>
      <point x="206" y="1486" type="line"/>
      <point x="196" y="1406" type="line"/>
      <point x="345" y="1386" type="line"/>
      <point x="180" y="92" type="line"/>
    </contour>
  </outline>
</glyph>
<glyph name="F" format="1">
  <advance width="1206"/>
  <unicode hex="0046"/>
  <outline>
    <contour>
      <point x="630" y="-164" type="move" name="btm"/>
    </contour>
    <contour>
      <point x="777" y="1486" type="move" name="top"/>
    </contour>
    <contour>
      <point x="4" y="70" type="line"/>
      <point x="-4" y="0" type="line"/>
      <point x="581" y="0" type="line"/>
      <point x="590" y="70" type="line"/>
      <point x="328" y="96" type="line"/>
      <point x="425" y="712" type="line"/>
      <point x="979" y="698" type="line"/>
      <point x="992" y="828" type="line"/>
      <point x="434" y="820" type="line"/>
      <point x="517" y="1398" type="line"/>
      <point x="1118" y="1384" type="line"/>
      <point x="1140" y="1180" type="line"/>
      <point x="1239" y="1180" type="line"/>
      <point x="1260" y="1486" type="line"/>
      <point x="218" y="1486" type="line"/>
      <point x="205" y="1406" type="line"/>
      <point x="355" y="1386" type="line"/>
      <point x="168" y="94" type="line"/>
    </contour>
  </outline>
</glyph>
<glyph name="H" format="1">
  <advance width="1610"/>
  <unicode hex="0048"/>
  <outline>
    <contour>
      <point x="917" y="1486" type="move" name="top"/>
    </contour>
    <contour>
      <point x="724" y="0" type="move" name="bottom"/>
    </contour>
    <contour>
      <point x="4" y="70" type="line"/>
      <point x="-4" y="0" type="line"/>
      <point x="486" y="0" type="line"/>
      <point x="492" y="70" type="line"/>
      <point x="331" y="94" type="line"/>
      <point x="513" y="1386" type="line"/>
      <point x="666" y="1406" type="line"/>
      <point x="674" y="1486" type="line"/>
      <point x="223" y="1486" type="line"/>
      <point x="215" y="1406" type="line"/>
      <point x="350" y="1386" type="line"/>
      <point x="170" y="94" type="line"/>
    </contour>
    <contour>
      <point x="392" y="810" type="line"/>
      <point x="394" y="706" type="line"/>
      <point x="1271" y="706" type="line"/>
      <point x="1270" y="810" type="line"/>
    </contour>
    <contour>
      <point x="943" y="70" type="line"/>
      <point x="938" y="0" type="line"/>
      <point x="1444" y="0" type="line"/>
      <point x="1449" y="70" type="line"/>
      <point x="1288" y="94" type="line"/>
      <point x="1466" y="1386" type="line"/>
      <point x="1617" y="1406" type="line"/>
      <point x="1627" y="1486" type="line"/>
      <point x="1165" y="1486" type="line"/>
      <point x="1155" y="1406" type="line"/>
      <point x="1308" y="1386" type="line"/>
      <point x="1131" y="94" type="line"/>
    </contour>
  </outline>
</glyph>
<glyph name="I" format="1">
  <advance width="635"/>
  <unicode hex="0049"/>
  <outline>
    <contour>
      <point x="365" y="-164" type="move" name="btm"/>
    </contour>
    <contour>
      <point x="103" y="1486" type="move" name="topleft"/>
    </contour>
    <contour>
      <point x="422" y="1486" type="move" name="top"/>
    </contour>
    <contour>
      <point x="328" y="20" type="move" name="ogonek"/>
    </contour>
    <contour>
      <point x="225" y="0" type="move" name="bottom"/>
    </contour>
    <contour>
      <point x="-10" y="70" type="line"/>
      <point x="-15" y="0" type="line"/>
      <point x="480" y="0" type="line"/>
      <point x="486" y="70" type="line"/>
      <point x="316" y="94" type="line"/>
      <point x="482" y="1386" type="line"/>
      <point x="647" y="1406" type="line"/>
      <point x="655" y="1486" type="line"/>
      <point x="183" y="1486" type="line"/>
      <point x="172" y="1406" type="line"/>
      <point x="322" y="1386" type="line"/>
      <point x="154" y="94" type="line"/>
    </contour>
  </outline>
</glyph>
<glyph name="J" format="1">
  <advance width="662"/>
  <unicode hex="004A"/>
  <outline>
    <contour>
      <point x="255" y="-164" type="move" name="btm"/>
    </contour>
    <contour>
      <point x="451" y="1486" type="move" name="top"/>
    </contour>
    <contour>
      <point x="-238" y="-266" type="curve"/>
      <point x="-207" y="-336" type="line"/>
      <point x="11" y="-302"/>
      <point x="237" y="-189"/>
      <point x="324" y="74" type="curve"/>
      <point x="355" y="166"/>
      <point x="421" y="738"/>
      <point x="494" y="1388" type="curve"/>
      <point x="682" y="1406" type="line"/>
      <point x="691" y="1486" type="line"/>
      <point x="185" y="1486" type="line"/>
      <point x="174" y="1406" type="line"/>
      <point x="338" y="1388" type="line"/>
      <point x="290" y="962"/>
      <point x="239" y="406"/>
      <point x="168" y="88" type="curve"/>
      <point x="132" y="-70"/>
      <point x="-40" y="-219"/>
    </contour>
  </outline>
</glyph>
<glyph name="K" format="1">
  <advance width="1497"/>
  <unicode hex="004B"/>
  <outline>
    <contour>
      <point x="870" y="1486" type="move" name="top"/>
    </contour>
    <contour>
      <point x="725" y="0" type="move" name="bottom"/>
    </contour>
    <contour>
      <point x="390" y="616" type="line"/>
      <point x="370" y="462" type="line"/>
      <point x="1335" y="1388" type="line"/>
      <point x="1464" y="1406" type="line"/>
      <point x="1479" y="1486" type="line"/>
      <point x="1032" y="1486" type="line"/>
      <point x="1022" y="1406" type="line"/>
      <point x="1172" y="1386" type="line"/>
    </contour>
    <contour>
      <point x="4" y="70" type="line"/>
      <point x="-6" y="0" type="line"/>
      <point x="491" y="0" type="line"/>
      <point x="496" y="70" type="line"/>
      <point x="328" y="94" type="line"/>
      <point x="511" y="1386" type="line"/>
      <point x="674" y="1406" type="line"/>
      <point x="684" y="1486" type="line"/>
      <point x="210" y="1486" type="line"/>
      <point x="200" y="1406" type="line"/>
      <point x="350" y="1386" type="line"/>
      <point x="167" y="94" type="line"/>
    </contour>
    <contour>
      <point x="1101" y="0" type="curve"/>
      <point x="1344" y="0" type="line"/>
      <point x="1356" y="76" type="line"/>
      <point x="1221" y="108" type="line"/>
      <point x="1174" y="132"/>
      <point x="1127" y="216"/>
      <point x="990" y="410" type="curve"/>
      <point x="911" y="516"/>
      <point x="789" y="713"/>
      <point x="714" y="821" type="curve"/>
      <point x="615" y="714" type="line"/>
      <point x="676" y="616"/>
      <point x="772" y="458"/>
      <point x="846" y="348" type="curve"/>
      <point x="940" y="209"/>
      <point x="1051" y="4"/>
    </contour>
  </outline>
</glyph>
<glyph name="L" format="1">
  <advance width="1241"/>
  <unicode hex="004C"/>
  <outline>
    <contour>
      <point x="907" y="1110" type="move" name="car"/>
    </contour>
    <contour>
      <point x="450" y="1486" type="move" name="top"/>
    </contour>
    <contour>
      <point x="584" y="0" type="move" name="bottom"/>
    </contour>
    <contour>
      <point x="3" y="70" type="line"/>
      <point x="-2" y="0" type="line"/>
      <point x="1054" y="0" type="line"/>
      <point x="1158" y="428" type="line"/>
      <point x="1062" y="446" type="line"/>
      <point x="925" y="102" type="line"/>
      <point x="328" y="94" type="line"/>
      <point x="510" y="1386" type="line"/>
      <point x="705" y="1406" type="line"/>
      <point x="710" y="1486" type="line"/>
      <point x="210" y="1486" type="line"/>
      <point x="201" y="1406" type="line"/>
      <point x="350" y="1386" type="line"/>
      <point x="167" y="94" type="line"/>
    </contour>
  </outline>
</glyph>
<glyph name="M" format="1">
  <advance width="2076"/>
  <unicode hex="004D"/>
  <outline>
    <contour>
      <point x="1146" y="1486" type="move" name="top"/>
    </contour>
    <contour>
      <point x="950" y="0" type="move" name="bottom"/>
    </contour>
    <contour>
      <point x="-30" y="70" type="line"/>
      <point x="-38" y="0" type="line"/>
      <point x="503" y="0" type="line"/>
      <point x="510" y="70" type="line"/>
      <point x="297" y="94" type="line"/>
      <point x="519" y="1008" type="line"/>
      <point x="606" y="1401" type="line"/>
      <point x="685" y="1016" type="line"/>
      <point x="899" y="0" type="line"/>
      <point x="999" y="0" type="line"/>
      <point x="1516" y="1040" type="line"/>
      <point x="1684" y="1403" type="line"/>
      <point x="1655" y="992" type="line"/>
      <point x="1635" y="92" type="line"/>
      <point x="1432" y="70" type="line"/>
      <point x="1424" y="0" type="line"/>
      <point x="1976" y="0" type="line"/>
      <point x="1981" y="70" type="line"/>
      <point x="1796" y="94" type="line"/>
      <point x="1811" y="1386" type="line"/>
      <point x="2010" y="1406" type="line"/>
      <point x="2018" y="1486" type="line"/>
      <point x="1612" y="1486" type="line"/>
      <point x="1100" y="461" type="line"/>
      <point x="991" y="238" type="line"/>
      <point x="951" y="465" type="line"/>
      <point x="733" y="1486" type="line"/>
      <point x="306" y="1486" type="line"/>
      <point x="297" y="1406" type="line"/>
      <point x="500" y="1386" type="line"/>
      <point x="157" y="94" type="line"/>
    </contour>
  </outline>
</glyph>
<glyph name="N" format="1">
  <advance width="1580"/>
  <unicode hex="004E"/>
  <outline>
    <contour>
      <point x="920" y="1486" type="move" name="top"/>
    </contour>
    <contour>
      <point x="773" y="0" type="move" name="bottom"/>
    </contour>
    <contour>
      <point x="22" y="70" type="line"/>
      <point x="16" y="0" type="line"/>
      <point x="495" y="0" type="line"/>
      <point x="500" y="70" type="line"/>
      <point x="312" y="94" type="line"/>
      <point x="465" y="1401" type="line"/>
      <point x="431" y="1398" type="line"/>
      <point x="548" y="1102" type="line"/>
      <point x="1124" y="0" type="line"/>
      <point x="1280" y="0" type="line"/>
      <point x="1475" y="1386" type="line"/>
      <point x="1646" y="1406" type="line"/>
      <point x="1651" y="1486" type="line"/>
      <point x="1180" y="1486" type="line"/>
      <point x="1170" y="1406" type="line"/>
      <point x="1345" y="1388" type="line"/>
      <point x="1188" y="79" type="line"/>
      <point x="1223" y="82" type="line"/>
      <point x="1106" y="376" type="line"/>
      <point x="523" y="1486" type="line"/>
      <point x="207" y="1486" type="line"/>
      <point x="195" y="1406" type="line"/>
      <point x="354" y="1386" type="line"/>
      <point x="174" y="92" type="line"/>
    </contour>
  </outline>
</glyph>
<glyph name="O" format="1">
  <advance width="1482"/>
  <unicode hex="004F"/>
  <outline>
    <contour>
      <point x="172" y="1486" type="move" name="topleft"/>
    </contour>
    <contour>
      <point x="778" y="744" type="move" name="center"/>
    </contour>
    <contour>
      <point x="667" y="0" type="move" name="bottom"/>
    </contour>
    <contour>
      <point x="877" y="1486" type="move" name="top"/>
    </contour>
    <contour>
      <point x="1247" y="1486" type="move" name="topright"/>
    </contour>
    <contour>
      <point x="870" y="20" type="move" name="ogonek"/>
    </contour>
    <contour>
      <point x="667" y="-20" type="curve"/>
      <point x="1101" y="-20"/>
      <point x="1424" y="374"/>
      <point x="1407" y="885" type="curve"/>
      <point x="1395" y="1223"/>
      <point x="1217" y="1506"/>
      <point x="856" y="1506" type="curve"/>
      <point x="427" y="1506"/>
      <point x="96" y="1121"/>
      <point x="112" y="605" type="curve"/>
      <point x="123" y="256"/>
      <point x="313" y="-20"/>
    </contour>
    <contour>
      <point x="690" y="76" type="curve"/>
      <point x="437" y="76"/>
      <point x="282" y="299"/>
      <point x="274" y="626" type="curve"/>
      <point x="261" y="1080"/>
      <point x="508" y="1407"/>
      <point x="831" y="1407" type="curve"/>
      <point x="1092" y="1407"/>
      <point x="1227" y="1184"/>
      <point x="1239" y="862" type="curve"/>
      <point x="1254" y="408"/>
      <point x="1011" y="76"/>
    </contour>
  </outline>
</glyph>
<glyph name="P" format="1">
  <advance width="1364"/>
  <unicode hex="0050"/>
  <outline>
    <contour>
      <point x="781" y="1486" type="move" name="top"/>
    </contour>
    <contour>
      <point x="17" y="70" type="line"/>
      <point x="9" y="0" type="line"/>
      <point x="538" y="0" type="line"/>
      <point x="544" y="70" type="line"/>
      <point x="333" y="94" type="line"/>
      <point x="523" y="1461" type="line"/>
      <point x="474" y="1381" type="line"/>
      <point x="542" y="1394"/>
      <point x="674" y="1406"/>
      <point x="759" y="1408" type="curve"/>
      <point x="1026" y="1414"/>
      <point x="1114" y="1306"/>
      <point x="1114" y="1110" type="curve"/>
      <point x="1113" y="796"/>
      <point x="959" y="628"/>
      <point x="627" y="626" type="curve"/>
      <point x="582" y="626"/>
      <point x="440" y="634"/>
      <point x="358" y="647" type="curve"/>
      <point x="350" y="536" type="line"/>
      <point x="396" y="533"/>
      <point x="549" y="530"/>
      <point x="622" y="530" type="curve"/>
      <point x="987" y="530"/>
      <point x="1296" y="738"/>
      <point x="1285" y="1122" type="curve"/>
      <point x="1278" y="1380"/>
      <point x="1098" y="1502"/>
      <point x="783" y="1502" type="curve"/>
      <point x="666" y="1502"/>
      <point x="571" y="1486"/>
      <point x="451" y="1486" type="curve"/>
      <point x="206" y="1486" type="line"/>
      <point x="198" y="1406" type="line"/>
      <point x="350" y="1386" type="line"/>
      <point x="170" y="94" type="line"/>
    </contour>
  </outline>
</glyph>
<glyph name="Q" format="1">
  <advance width="1477"/>
  <unicode hex="0051"/>
  <outline>
    <contour>
      <point x="993" y="-355" type="curve"/>
      <point x="1113" y="-355"/>
      <point x="1240" y="-309"/>
      <point x="1293" y="-271" type="curve"/>
      <point x="1289" y="-161" type="line"/>
      <point x="1227" y="-189"/>
      <point x="1123" y="-210"/>
      <point x="1047" y="-210" type="curve"/>
      <point x="881" y="-210"/>
      <point x="724" y="-181"/>
      <point x="719" y="-13" type="curve"/>
      <point x="611" y="-18" type="line"/>
      <point x="573" y="-244"/>
      <point x="779" y="-355"/>
    </contour>
    <contour>
      <point x="651" y="-20" type="curve"/>
      <point x="1085" y="-20"/>
      <point x="1408" y="374"/>
      <point x="1391" y="885" type="curve"/>
      <point x="1380" y="1223"/>
      <point x="1201" y="1506"/>
      <point x="840" y="1506" type="curve"/>
      <point x="411" y="1506"/>
      <point x="81" y="1121"/>
      <point x="97" y="605" type="curve"/>
      <point x="107" y="256"/>
      <point x="297" y="-20"/>
    </contour>
    <contour>
      <point x="674" y="76" type="curve"/>
      <point x="421" y="76"/>
      <point x="267" y="299"/>
      <point x="258" y="626" type="curve"/>
      <point x="245" y="1080"/>
      <point x="492" y="1407"/>
      <point x="815" y="1407" type="curve"/>
      <point x="1076" y="1407"/>
      <point x="1212" y="1184"/>
      <point x="1223" y="862" type="curve"/>
      <point x="1238" y="408"/>
      <point x="995" y="76"/>
    </contour>
  </outline>
</glyph>
<glyph name="R" format="1">
  <advance width="1431"/>
  <unicode hex="0052"/>
  <outline>
    <contour>
      <point x="833" y="1486" type="move" name="top"/>
    </contour>
    <contour>
      <point x="609" y="0" type="move" name="bottom"/>
    </contour>
    <contour>
      <point x="33" y="70" type="line"/>
      <point x="27" y="0" type="line"/>
      <point x="537" y="0" type="line"/>
      <point x="543" y="70" type="line"/>
      <point x="336" y="94" type="line"/>
      <point x="510" y="1465" type="line"/>
      <point x="471" y="1386" type="line"/>
      <point x="493" y="1395"/>
      <point x="677" y="1408"/>
      <point x="720" y="1408" type="curve"/>
      <point x="1011" y="1408"/>
      <point x="1103" y="1324"/>
      <point x="1110" y="1156" type="curve"/>
      <point x="1116" y="934"/>
      <point x="957" y="762"/>
      <point x="696" y="748" type="curve"/>
      <point x="667" y="747"/>
      <point x="458" y="747"/>
      <point x="383" y="748" type="curve"/>
      <point x="367" y="655" type="line"/>
      <point x="439" y="655"/>
      <point x="649" y="656"/>
      <point x="661" y="656" type="curve"/>
      <point x="764" y="654"/>
      <point x="881" y="430"/>
      <point x="972" y="244" type="curve"/>
      <point x="1066" y="48"/>
      <point x="1111" y="0"/>
      <point x="1145" y="0" type="curve"/>
      <point x="1317" y="0" type="line"/>
      <point x="1327" y="80" type="line"/>
      <point x="1219" y="80"/>
      <point x="1209" y="110"/>
      <point x="1088" y="332" type="curve"/>
      <point x="1032" y="424"/>
      <point x="915" y="684"/>
      <point x="798" y="676" type="curve"/>
      <point x="782" y="659" type="line"/>
      <point x="1084" y="704"/>
      <point x="1279" y="909"/>
      <point x="1271" y="1168" type="curve"/>
      <point x="1264" y="1398"/>
      <point x="1104" y="1502"/>
      <point x="746" y="1502" type="curve"/>
      <point x="655" y="1502"/>
      <point x="556" y="1486"/>
      <point x="466" y="1486" type="curve"/>
      <point x="206" y="1486" type="line"/>
      <point x="198" y="1406" type="line"/>
      <point x="345" y="1386" type="line"/>
      <point x="180" y="94" type="line"/>
    </contour>
  </outline>
</glyph>
<glyph name="S" format="1">
  <advance width="1122"/>
  <unicode hex="0053"/>
  <outline>
    <contour>
      <point x="677" y="1486" type="move" name="top"/>
    </contour>
    <contour>
      <point x="467" y="0" type="move" name="bottom"/>
    </contour>
    <contour>
      <point x="438" y="-22" type="curve"/>
      <point x="756" y="-22"/>
      <point x="1005" y="148"/>
      <point x="1000" y="416" type="curve"/>
      <point x="995" y="620"/>
      <point x="803" y="720"/>
      <point x="637" y="816" type="curve"/>
      <point x="489" y="904"/>
      <point x="320" y="988"/>
      <point x="320" y="1162" type="curve"/>
      <point x="321" y="1328"/>
      <point x="504" y="1408"/>
      <point x="663" y="1408" type="curve"/>
      <point x="785" y="1408"/>
      <point x="877" y="1386"/>
      <point x="924" y="1356" type="curve"/>
      <point x="935" y="1166" type="line"/>
      <point x="1024" y="1166" type="line"/>
      <point x="1074" y="1422" type="line"/>
      <point x="1014" y="1458"/>
      <point x="885" y="1502"/>
      <point x="676" y="1502" type="curve"/>
      <point x="400" y="1502"/>
      <point x="160" y="1348"/>
      <point x="165" y="1112" type="curve"/>
      <point x="170" y="892"/>
      <point x="381" y="776"/>
      <point x="551" y="682" type="curve"/>
      <point x="695" y="600"/>
      <point x="844" y="510"/>
      <point x="837" y="342" type="curve"/>
      <point x="829" y="154"/>
      <point x="616" y="72"/>
      <point x="445" y="72" type="curve"/>
      <point x="336" y="72"/>
      <point x="217" y="96"/>
      <point x="153" y="134" type="curve"/>
      <point x="142" y="338" type="line"/>
      <point x="45" y="338" type="line"/>
      <point x="-2" y="64" type="line"/>
      <point x="53" y="28"/>
      <point x="240" y="-22"/>
    </contour>
  </outline>
</glyph>
<glyph name="T" format="1">
  <advance width="1429"/>
  <unicode hex="0054"/>
  <outline>
    <contour>
      <point x="803" y="1486" type="move" name="top"/>
    </contour>
    <contour>
      <point x="606" y="0" type="move" name="bottom"/>
    </contour>
    <contour>
      <point x="266" y="76" type="line"/>
      <point x="263" y="0" type="line"/>
      <point x="963" y="0" type="line"/>
      <point x="968" y="76" type="line"/>
      <point x="695" y="94" type="line"/>
      <point x="869" y="1400" type="line"/>
      <point x="1278" y="1384" type="line"/>
      <point x="1282" y="1040" type="line"/>
      <point x="1372" y="1042" type="line"/>
      <point x="1412" y="1486" type="line"/>
      <point x="184" y="1486" type="line"/>
      <point x="111" y="1042" type="line"/>
      <point x="206" y="1044" type="line"/>
      <point x="292" y="1384" type="line"/>
      <point x="707" y="1400" type="line"/>
      <point x="535" y="94" type="line"/>
    </contour>
  </outline>
</glyph>
<glyph name="U" format="1">
  <advance width="1516"/>
  <unicode hex="0055"/>
  <outline>
    <contour>
      <point x="864" y="1486" type="move" name="top"/>
    </contour>
    <contour>
      <point x="868" y="20" type="move" name="ogonek"/>
    </contour>
    <contour>
      <point x="1597" y="1486" type="move" name="topright"/>
    </contour>
    <contour>
      <point x="678" y="0" type="move" name="bottom"/>
    </contour>
    <contour>
      <point x="662" y="-20" type="curve"/>
      <point x="1036" y="-20"/>
      <point x="1254" y="152"/>
      <point x="1313" y="612" type="curve"/>
      <point x="1413" y="1388" type="line"/>
      <point x="1552" y="1406" type="line"/>
      <point x="1560" y="1486" type="line"/>
      <point x="1129" y="1486" type="line"/>
      <point x="1121" y="1406" type="line"/>
      <point x="1268" y="1386" type="line"/>
      <point x="1168" y="612" type="line" smooth="yes"/>
      <point x="1121" y="246"/>
      <point x="965" y="71"/>
      <point x="686" y="71" type="curve"/>
      <point x="454" y="71"/>
      <point x="352" y="201"/>
      <point x="340" y="408" type="curve"/>
      <point x="336" y="464"/>
      <point x="340" y="522"/>
      <point x="348" y="593" type="curve"/>
      <point x="450" y="1386" type="line"/>
      <point x="620" y="1406" type="line"/>
      <point x="629" y="1486" type="line"/>
      <point x="144" y="1486" type="line"/>
      <point x="136" y="1406" type="line"/>
      <point x="286" y="1388" type="line"/>
      <point x="184" y="580" type="line" smooth="yes"/>
      <point x="177" y="522"/>
      <point x="175" y="466"/>
      <point x="178" y="416" type="curve"/>
      <point x="192" y="148"/>
      <point x="353" y="-20"/>
    </contour>
  </outline>
</glyph>
<glyph name="V" format="1">
  <advance width="1308"/>
  <unicode hex="0056"/>
  <outline>
    <contour>
      <point x="834" y="1660" type="move" name="top"/>
    </contour>
    <contour>
      <point x="184" y="1386" type="line"/>
      <point x="489" y="-19" type="line"/>
      <point x="632" y="-10" type="line"/>
      <point x="1333" y="1388" type="line"/>
      <point x="1452" y="1406" type="line"/>
      <point x="1459" y="1486" type="line"/>
      <point x="1029" y="1486" type="line"/>
      <point x="1021" y="1406" type="line"/>
      <point x="1192" y="1386" type="line"/>
      <point x="727" y="442" type="line"/>
      <point x="569" y="70" type="line"/>
      <point x="607" y="66" type="line"/>
      <point x="550" y="442" type="line"/>
      <point x="352" y="1386" type="line"/>
      <point x="575" y="1406" type="line"/>
      <point x="583" y="1486" type="line"/>
      <point x="59" y="1486" type="line"/>
      <point x="52" y="1406" type="line"/>
    </contour>
  </outline>
</glyph>
<glyph name="W" format="1">
  <advance width="1988"/>
  <unicode hex="0057"/>
  <outline>
    <contour>
      <point x="1112" y="1486" type="move" name="top"/>
    </contour>
    <contour>
      <point x="905" y="0" type="move" name="bottom"/>
    </contour>
    <contour>
      <point x="977" y="1388" type="line"/>
      <point x="1182" y="-10" type="line"/>
      <point x="1349" y="-10" type="line"/>
      <point x="1985" y="1386" type="line"/>
      <point x="2138" y="1406" type="line"/>
      <point x="2150" y="1486" type="line"/>
      <point x="1689" y="1486" type="line"/>
      <point x="1681" y="1406" type="line"/>
      <point x="1848" y="1386" type="line"/>
      <point x="1412" y="395" type="line"/>
      <point x="1278" y="73" type="line"/>
      <point x="1313" y="69" type="line"/>
      <point x="1270" y="428" type="line"/>
      <point x="1132" y="1388" type="line"/>
      <point x="1326" y="1406" type="line"/>
      <point x="1344" y="1486" type="line"/>
      <point x="827" y="1486" type="line"/>
      <point x="820" y="1406" type="line"/>
    </contour>
    <contour>
      <point x="193" y="1386" type="line"/>
      <point x="431" y="-10" type="line"/>
      <point x="594" y="-10" type="line"/>
      <point x="1032" y="1032" type="line"/>
      <point x="998" y="1250" type="line"/>
      <point x="636" y="374" type="line"/>
      <point x="524" y="72" type="line"/>
      <point x="559" y="69" type="line"/>
      <point x="501" y="428" type="line"/>
      <point x="352" y="1390" type="line"/>
      <point x="547" y="1406" type="line"/>
      <point x="553" y="1486" type="line"/>
      <point x="59" y="1486" type="line"/>
      <point x="51" y="1406" type="line"/>
    </contour>
  </outline>
</glyph>
<glyph name="X" format="1">
  <advance width="1393"/>
  <unicode hex="0058"/>
  <outline>
    <contour>
      <point x="814" y="1660" type="move" name="top"/>
    </contour>
    <contour>
      <point x="612" y="0" type="move" name="bottom"/>
    </contour>
    <contour>
      <point x="-70" y="70" type="line"/>
      <point x="-78" y="0" type="line"/>
      <point x="409" y="0" type="line"/>
      <point x="417" y="70" type="line"/>
      <point x="236" y="94" type="line"/>
      <point x="665" y="652" type="line"/>
      <point x="770" y="759" type="line"/>
      <point x="1310" y="1388" type="line"/>
      <point x="1469" y="1406" type="line"/>
      <point x="1474" y="1486" type="line"/>
      <point x="969" y="1486" type="line"/>
      <point x="961" y="1406" type="line"/>
      <point x="1151" y="1386" type="line"/>
      <point x="714" y="847" type="line"/>
      <point x="609" y="752" type="line"/>
      <point x="72" y="92" type="line"/>
    </contour>
    <contour>
      <point x="758" y="70" type="line"/>
      <point x="752" y="0" type="line"/>
      <point x="1300" y="0" type="line"/>
      <point x="1303" y="70" type="line"/>
      <point x="1139" y="94" type="line"/>
      <point x="770" y="759" type="line"/>
      <point x="714" y="847" type="line"/>
      <point x="449" y="1388" type="line"/>
      <point x="638" y="1406" type="line"/>
      <point x="646" y="1486" type="line"/>
      <point x="117" y="1486" type="line"/>
      <point x="109" y="1406" type="line"/>
      <point x="266" y="1384" type="line"/>
      <point x="609" y="752" type="line"/>
      <point x="664" y="652" type="line"/>
      <point x="944" y="92" type="line"/>
    </contour>
  </outline>
</glyph>
<glyph name="Y" format="1">
  <advance width="1225"/>
  <unicode hex="0059"/>
  <outline>
    <contour>
      <point x="514" y="-166" type="move" name="btm"/>
    </contour>
    <contour>
      <point x="110" y="1486" type="move" name="topleft"/>
    </contour>
    <contour>
      <point x="714" y="1486" type="move" name="top"/>
    </contour>
    <contour>
      <point x="496" y="0" type="move" name="bottom"/>
    </contour>
    <contour>
      <point x="211" y="70" type="line"/>
      <point x="204" y="0" type="line"/>
      <point x="853" y="0" type="line"/>
      <point x="860" y="70" type="line"/>
      <point x="619" y="94" type="line"/>
      <point x="690" y="646" type="line"/>
      <point x="641" y="511" type="line"/>
      <point x="1252" y="1388" type="line"/>
      <point x="1374" y="1406" type="line"/>
      <point x="1381" y="1486" type="line"/>
      <point x="946" y="1486" type="line"/>
      <point x="936" y="1406" type="line"/>
      <point x="1109" y="1386" type="line"/>
      <point x="713" y="805" type="line"/>
      <point x="593" y="612" type="line"/>
      <point x="654" y="605" type="line"/>
      <point x="586" y="807" type="line"/>
      <point x="338" y="1386" type="line"/>
      <point x="520" y="1406" type="line"/>
      <point x="529" y="1486" type="line"/>
      <point x="51" y="1486" type="line"/>
      <point x="40" y="1406" type="line"/>
      <point x="168" y="1386" type="line"/>
      <point x="557" y="504" type="line"/>
      <point x="537" y="646" type="line"/>
      <point x="466" y="94" type="line"/>
    </contour>
  </outline>
</glyph>
<glyph name="Z" format="1">
  <advance width="1322"/>
  <unicode hex="005A"/>
  <outline>
    <contour>
      <point x="730" y="1486" type="move" name="top"/>
    </contour>
    <contour>
      <point x="575" y="0" type="move" name="bottom"/>
    </contour>
    <contour>
      <point x="-32" y="73" type="line"/>
      <point x="-9" y="0" type="line"/>
      <point x="1093" y="0" type="line"/>
      <point x="1190" y="349" type="line"/>
      <point x="1090" y="376" type="line"/>
      <point x="966" y="107" type="line"/>
      <point x="161" y="87" type="line"/>
      <point x="321" y="266" type="line"/>
      <point x="1279" y="1415" type="line"/>
      <point x="1259" y="1486" type="line"/>
      <point x="235" y="1486" type="line"/>
      <point x="175" y="1147" type="line"/>
      <point x="275" y="1129" type="line"/>
      <point x="364" y="1387" type="line"/>
      <point x="1093" y="1394" type="line"/>
      <point x="899" y="1193" type="line"/>
    </contour>
  </outline>
</glyph>
<glyph name="AE" format="1">
  <advance width="2078"/>
  <unicode hex="00C6"/>
  <outline>
    <contour>
      <point x="1307" y="1486" type="move" name="top"/>
    </contour>
    <contour>
      <point x="-122" y="70" type="line"/>
      <point x="-135" y="0" type="line"/>
      <point x="471" y="0" type="line"/>
      <point x="477" y="70" type="line"/>
      <point x="227" y="94" type="line"/>
      <point x="449" y="483" type="line"/>
      <point x="1004" y="483" type="line"/>
      <point x="954" y="92" type="line"/>
      <point x="812" y="70" type="line"/>
      <point x="803" y="0" type="line"/>
      <point x="1881" y="0" type="line"/>
      <point x="1956" y="301" type="line"/>
      <point x="1870" y="324" type="line"/>
      <point x="1768" y="113" type="line"/>
      <point x="1119" y="94" type="line"/>
      <point x="1197" y="715" type="line"/>
      <point x="1682" y="702" type="line"/>
      <point x="1692" y="837" type="line"/>
      <point x="1204" y="816" type="line"/>
      <point x="1282" y="1398" type="line"/>
      <point x="1811" y="1387" type="line"/>
      <point x="1849" y="1196" type="line"/>
      <point x="1936" y="1196" type="line"/>
      <point x="1941" y="1486" type="line"/>
      <point x="492" y="1486" type="line"/>
      <point x="482" y="1406" type="line"/>
      <point x="823" y="1387" type="line"/>
      <point x="59" y="92" type="line"/>
    </contour>
    <contour>
      <point x="1013" y="582" type="line"/>
      <point x="501" y="582" type="line"/>
      <point x="950" y="1387" type="line"/>
      <point x="1111" y="1381" type="line"/>
    </contour>
  </outline>
</glyph>
<glyph name="Eth" format="1">
  <advance width="1471"/>
  <unicode hex="00D0"/>
  <outline>
    <contour>
      <point x="110" y="818" type="line"/>
      <point x="97" y="712" type="line"/>
      <point x="904" y="712" type="line"/>
      <point x="917" y="818" type="line"/>
    </contour>
    <contour>
      <point x="680" y="-16" type="curve"/>
      <point x="1144" y="-16"/>
      <point x="1465" y="382"/>
      <point x="1458" y="900" type="curve"/>
      <point x="1454" y="1260"/>
      <point x="1267" y="1502"/>
      <point x="821" y="1502" type="curve"/>
      <point x="720" y="1502"/>
      <point x="618" y="1488"/>
      <point x="514" y="1486" type="curve"/>
      <point x="239" y="1486" type="line"/>
      <point x="232" y="1406" type="line"/>
      <point x="367" y="1386" type="line"/>
      <point x="187" y="94" type="line"/>
      <point x="22" y="70" type="line"/>
      <point x="14" y="0" type="line"/>
      <point x="260" y="0" type="line" smooth="yes"/>
      <point x="387" y="0"/>
      <point x="502" y="-16"/>
    </contour>
    <contour>
      <point x="304" y="116" type="curve"/>
      <point x="340" y="33" type="line"/>
      <point x="540" y="1463" type="line"/>
      <point x="489" y="1385" type="line"/>
      <point x="550" y="1393"/>
      <point x="690" y="1408"/>
      <point x="784" y="1408" type="curve"/>
      <point x="1145" y="1408"/>
      <point x="1289" y="1254"/>
      <point x="1293" y="886" type="curve"/>
      <point x="1298" y="494"/>
      <point x="1091" y="80"/>
      <point x="651" y="80" type="curve"/>
      <point x="559" y="80"/>
      <point x="396" y="94"/>
    </contour>
  </outline>
</glyph>
<glyph name="Oslash" format="1">
  <advance width="1460"/>
  <unicode hex="00D8"/>
  <outline>
    <contour>
      <point x="839" y="1486" type="move" name="top"/>
    </contour>
    <contour>
      <point x="82" y="-93" type="line"/>
      <point x="190" y="-146" type="line"/>
      <point x="1353" y="1602" type="line"/>
      <point x="1246" y="1653" type="line"/>
    </contour>
    <contour>
      <point x="651" y="-20" type="curve"/>
      <point x="1085" y="-20"/>
      <point x="1408" y="374"/>
      <point x="1391" y="885" type="curve"/>
      <point x="1380" y="1223"/>
      <point x="1201" y="1506"/>
      <point x="840" y="1506" type="curve"/>
      <point x="411" y="1506"/>
      <point x="81" y="1121"/>
      <point x="97" y="605" type="curve"/>
      <point x="107" y="256"/>
      <point x="297" y="-20"/>
    </contour>
    <contour>
      <point x="674" y="76" type="curve"/>
      <point x="421" y="76"/>
      <point x="267" y="299"/>
      <point x="258" y="626" type="curve"/>
      <point x="245" y="1080"/>
      <point x="492" y="1407"/>
      <point x="815" y="1407" type="curve"/>
      <point x="1076" y="1407"/>
      <point x="1212" y="1184"/>
      <point x="1223" y="862" type="curve"/>
      <point x="1238" y="408"/>
      <point x="995" y="76"/>
    </contour>
  </outline>
</glyph>
<glyph name="Thorn" format="1">
  <advance width="1355"/>
  <unicode hex="00DE"/>
  <outline>
    <contour>
      <point x="4" y="70" type="line"/>
      <point x="-4" y="0" type="line"/>
      <point x="494" y="0" type="line"/>
      <point x="500" y="70" type="line"/>
      <point x="331" y="94" type="line"/>
      <point x="365" y="316" type="line"/>
      <point x="406" y="312"/>
      <point x="492" y="308"/>
      <point x="622" y="308" type="curve"/>
      <point x="971" y="308"/>
      <point x="1262" y="506"/>
      <point x="1259" y="810" type="curve"/>
      <point x="1256" y="1044"/>
      <point x="1077" y="1182"/>
      <point x="751" y="1182" type="curve"/>
      <point x="668" y="1182"/>
      <point x="564" y="1176"/>
      <point x="482" y="1164" type="curve"/>
      <point x="513" y="1386" type="line"/>
      <point x="673" y="1406" type="line"/>
      <point x="681" y="1486" type="line"/>
      <point x="223" y="1486" type="line"/>
      <point x="215" y="1406" type="line"/>
      <point x="350" y="1386" type="line"/>
      <point x="170" y="94" type="line"/>
    </contour>
    <contour>
      <point x="376" y="412" type="curve"/>
      <point x="468" y="1068" type="line"/>
      <point x="525" y="1078"/>
      <point x="641" y="1086"/>
      <point x="711" y="1086" type="curve"/>
      <point x="1006" y="1086"/>
      <point x="1091" y="980"/>
      <point x="1098" y="778" type="curve"/>
      <point x="1103" y="556"/>
      <point x="931" y="400"/>
      <point x="620" y="400" type="curve"/>
      <point x="527" y="400"/>
      <point x="443" y="404"/>
    </contour>
  </outline>
</glyph>
<glyph name="Lslash" format="1">
  <advance width="1218"/>
  <unicode hex="0141"/>
  <outline>
    <contour>
      <point x="39" y="752" type="line"/>
      <point x="71" y="652" type="line"/>
      <point x="995" y="1002" type="line"/>
      <point x="956" y="1108" type="line"/>
    </contour>
    <contour>
      <point x="25" y="70" type="line"/>
      <point x="20" y="0" type="line"/>
      <point x="1076" y="0" type="line"/>
      <point x="1180" y="428" type="line"/>
      <point x="1084" y="446" type="line"/>
      <point x="948" y="102" type="line"/>
      <point x="350" y="94" type="line"/>
      <point x="533" y="1386" type="line"/>
      <point x="727" y="1406" type="line"/>
      <point x="732" y="1486" type="line"/>
      <point x="233" y="1486" type="line"/>
      <point x="223" y="1406" type="line"/>
      <point x="373" y="1386" type="line"/>
      <point x="190" y="94" type="line"/>
    </contour>
  </outline>
</glyph>
<glyph name="Eng" format="1">
  <advance width="1525"/>
  <unicode hex="014A"/>
  <outline>
    <contour>
      <point x="700" y="-292" type="curve"/>
      <point x="729" y="-363" type="line"/>
      <point x="977" y="-348"/>
      <point x="1206" y="-184"/>
      <point x="1237" y="50" type="curve"/>
      <point x="1428" y="1386" type="line"/>
      <point x="1600" y="1406" type="line"/>
      <point x="1605" y="1486" type="line"/>
      <point x="1134" y="1486" type="line"/>
      <point x="1123" y="1406" type="line"/>
      <point x="1299" y="1388" type="line"/>
      <point x="1146" y="183" type="line"/>
      <point x="1062" y="380" type="line"/>
      <point x="477" y="1486" type="line"/>
      <point x="160" y="1486" type="line"/>
      <point x="148" y="1406" type="line"/>
      <point x="307" y="1386" type="line"/>
      <point x="132" y="92" type="line"/>
      <point x="-19" y="70" type="line"/>
      <point x="-25" y="0" type="line"/>
      <point x="453" y="0" type="line"/>
      <point x="459" y="70" type="line"/>
      <point x="271" y="94" type="line"/>
      <point x="412" y="1328" type="line"/>
      <point x="505" y="1098" type="line"/>
      <point x="1080" y="0" type="line"/>
      <point x="1023" y="-184"/>
      <point x="882" y="-250"/>
    </contour>
  </outline>
</glyph>
<glyph name="OE" format="1">
  <advance width="2323"/>
  <unicode hex="0152"/>
  <outline>
    <contour>
      <point x="667" y="-20" type="curve"/>
      <point x="907" y="-20"/>
      <point x="1109" y="103"/>
      <point x="1239" y="297" type="curve"/>
      <point x="1202" y="0" type="line"/>
      <point x="2130" y="0" type="line"/>
      <point x="2205" y="301" type="line"/>
      <point x="2120" y="324" type="line"/>
      <point x="2019" y="114" type="line"/>
      <point x="1368" y="95" type="line"/>
      <point x="1448" y="716" type="line"/>
      <point x="1932" y="702" type="line"/>
      <point x="1941" y="838" type="line"/>
      <point x="1455" y="817" type="line"/>
      <point x="1534" y="1400" type="line"/>
      <point x="2063" y="1387" type="line"/>
      <point x="2102" y="1196" type="line"/>
      <point x="2191" y="1196" type="line"/>
      <point x="2192" y="1486" type="line"/>
      <point x="1384" y="1486" type="line"/>
      <point x="1341" y="1151" type="line"/>
      <point x="1268" y="1360"/>
      <point x="1103" y="1504"/>
      <point x="852" y="1504" type="curve"/>
      <point x="427" y="1504"/>
      <point x="78" y="1125"/>
      <point x="97" y="607" type="curve"/>
      <point x="107" y="217"/>
      <point x="335" y="-20"/>
    </contour>
    <contour>
      <point x="690" y="76" type="curve"/>
      <point x="405" y="77"/>
      <point x="271" y="307"/>
      <point x="259" y="674" type="curve"/>
      <point x="249" y="1087"/>
      <point x="505" y="1405"/>
      <point x="826" y="1405" type="curve"/>
      <point x="1090" y="1405"/>
      <point x="1227" y="1220"/>
      <point x="1238" y="852" type="curve"/>
      <point x="1250" y="408"/>
      <point x="1011" y="76"/>
    </contour>
  </outline>
</glyph>
<glyph name="Ohorn" format="1">
  <advance width="1527"/>
  <unicode hex="01A0"/>
  <outline>
    <contour>
      <point x="1052" y="1414" type="curve"/>
      <point x="1196" y="1306" type="line"/>
      <point x="1459" y="1321"/>
      <point x="1583" y="1488"/>
      <point x="1581" y="1686" type="curve"/>
      <point x="1581" y="1700"/>
      <point x="1578" y="1714"/>
      <point x="1575" y="1730" type="curve"/>
      <point x="1432" y="1730" type="line"/>
      <point x="1434" y="1722"/>
      <point x="1434" y="1709"/>
      <point x="1434" y="1695" type="curve"/>
      <point x="1435" y="1585"/>
      <point x="1363" y="1388"/>
    </contour>
    <contour>
      <point x="651" y="-20" type="curve"/>
      <point x="1085" y="-20"/>
      <point x="1408" y="374"/>
      <point x="1391" y="885" type="curve"/>
      <point x="1380" y="1223"/>
      <point x="1201" y="1506"/>
      <point x="840" y="1506" type="curve"/>
      <point x="411" y="1506"/>
      <point x="81" y="1121"/>
      <point x="97" y="605" type="curve"/>
      <point x="107" y="256"/>
      <point x="297" y="-20"/>
    </contour>
    <contour>
      <point x="674" y="76" type="curve"/>
      <point x="421" y="76"/>
      <point x="267" y="299"/>
      <point x="258" y="626" type="curve"/>
      <point x="245" y="1080"/>
      <point x="492" y="1407"/>
      <point x="815" y="1407" type="curve"/>
      <point x="1076" y="1407"/>
      <point x="1212" y="1184"/>
      <point x="1223" y="862" type="curve"/>
      <point x="1238" y="408"/>
      <point x="995" y="76"/>
    </contour>
  </outline>
</glyph>
<glyph name="Uhorn" format="1">
  <advance width="1576"/>
  <unicode hex="01AF"/>
  <outline>
    <contour>
      <point x="863" y="1486" type="move" name="top"/>
    </contour>
    <contour>
      <point x="674" y="0" type="move" name="bottom"/>
    </contour>
    <contour>
      <point x="144" y="1486" type="line"/>
      <point x="136" y="1406" type="line"/>
      <point x="288" y="1388" type="line"/>
      <point x="180" y="580" type="line" smooth="yes"/>
      <point x="172" y="522"/>
      <point x="170" y="466"/>
      <point x="173" y="416" type="curve"/>
      <point x="181" y="148"/>
      <point x="353" y="-20"/>
      <point x="662" y="-20" type="curve"/>
      <point x="1036" y="-20"/>
      <point x="1246" y="152"/>
      <point x="1308" y="612" type="curve"/>
      <point x="1412" y="1388" type="line"/>
      <point x="1658" y="1417"/>
      <point x="1742" y="1500"/>
      <point x="1736" y="1686" type="curve"/>
      <point x="1735" y="1700"/>
      <point x="1733" y="1714"/>
      <point x="1731" y="1730" type="curve"/>
      <point x="1564" y="1730" type="line"/>
      <point x="1566" y="1722"/>
      <point x="1566" y="1710"/>
      <point x="1566" y="1696" type="curve"/>
      <point x="1568" y="1596"/>
      <point x="1518" y="1486"/>
      <point x="1334" y="1486" type="curve"/>
      <point x="1128" y="1486" type="line"/>
      <point x="1121" y="1406" type="line"/>
      <point x="1268" y="1386" type="line"/>
      <point x="1164" y="612" type="line" smooth="yes"/>
      <point x="1118" y="246"/>
      <point x="965" y="70"/>
      <point x="685" y="70" type="curve"/>
      <point x="453" y="70"/>
      <point x="342" y="200"/>
      <point x="335" y="408" type="curve"/>
      <point x="332" y="464"/>
      <point x="333" y="522"/>
      <point x="343" y="593" type="curve"/>
      <point x="453" y="1386" type="line"/>
      <point x="619" y="1406" type="line"/>
      <point x="628" y="1486" type="line"/>
    </contour>
  </outline>
</glyph>
<glyph name="Ezh" format="1">
  <advance width="1366"/>
  <outline>
    <contour>
      <point x="840" y="1486" type="move" name="top"/>
    </contour>
    <contour>
      <point x="503" y="-12" type="curve"/>
      <point x="893" y="-12"/>
      <point x="1212" y="148"/>
      <point x="1208" y="465" type="curve"/>
      <point x="1205" y="706"/>
      <point x="1010" y="826"/>
      <point x="803" y="826" type="curve"/>
      <point x="863" y="810" type="line"/>
      <point x="1363" y="1416" type="line"/>
      <point x="1342" y="1486" type="line"/>
      <point x="317" y="1486" type="line"/>
      <point x="262" y="1147" type="line"/>
      <point x="360" y="1130" type="line"/>
      <point x="448" y="1388" type="line"/>
      <point x="1180" y="1394" type="line"/>
      <point x="984" y="1191" type="line"/>
      <point x="661" y="803" type="line"/>
      <point x="718" y="749" type="line"/>
      <point x="739" y="759"/>
      <point x="764" y="766"/>
      <point x="815" y="766" type="curve"/>
      <point x="925" y="766"/>
      <point x="1031" y="620"/>
      <point x="1033" y="454" type="curve"/>
      <point x="1036" y="198"/>
      <point x="782" y="86"/>
      <point x="560" y="86" type="curve"/>
      <point x="398" y="86"/>
      <point x="284" y="113"/>
      <point x="224" y="143" type="curve"/>
      <point x="234" y="391" type="line"/>
      <point x="153" y="391" type="line"/>
      <point x="68" y="64" type="line"/>
      <point x="141" y="37"/>
      <point x="291" y="-12"/>
    </contour>
  </outline>
</glyph>
<glyph name="Germandbls" format="1">
  <advance width="1510"/>
  <outline>
    <contour>
      <point x="897" y="-21" type="curve"/>
      <point x="1194" y="-21"/>
      <point x="1416" y="181"/>
      <point x="1412" y="444" type="curve"/>
      <point x="1409" y="705"/>
      <point x="1129" y="822"/>
      <point x="951" y="896" type="curve"/>
      <point x="1300" y="1331" type="line"/>
      <point x="1305" y="1379" type="line"/>
      <point x="1215" y="1437"/>
      <point x="1105" y="1493"/>
      <point x="864" y="1493" type="curve"/>
      <point x="487" y="1493"/>
      <point x="232" y="1225"/>
      <point x="191" y="891" type="curve"/>
      <point x="93" y="91" type="line"/>
      <point x="-43" y="68" type="line"/>
      <point x="-48" y="-11" type="line"/>
      <point x="243" y="-11" type="line"/>
      <point x="355" y="922" type="line" smooth="yes"/>
      <point x="391" y="1228"/>
      <point x="574" y="1405"/>
      <point x="832" y="1403" type="curve"/>
      <point x="1032" y="1401"/>
      <point x="1118" y="1324"/>
      <point x="1149" y="1286" type="curve"/>
      <point x="799" y="839" type="line"/>
      <point x="796" y="812" type="line"/>
      <point x="939" y="769"/>
      <point x="1236" y="622"/>
      <point x="1239" y="400" type="curve"/>
      <point x="1241" y="234"/>
      <point x="1146" y="70"/>
      <point x="916" y="70" type="curve"/>
      <point x="800" y="70"/>
      <point x="690" y="105"/>
      <point x="659" y="146" type="curve"/>
      <point x="638" y="310" type="line"/>
      <point x="539" y="310" type="line"/>
      <point x="504" y="60" type="line"/>
      <point x="562" y="54"/>
      <point x="683" y="-21"/>
    </contour>
  </outline>
</glyph>
<glyph name="Schwa" format="1">
  <advance width="1435"/>
  <outline>
    <contour>
      <point x="589" y="-22" type="curve"/>
      <point x="1024" y="-22"/>
      <point x="1386" y="368"/>
      <point x="1379" y="904" type="curve"/>
      <point x="1375" y="1262"/>
      <point x="1178" y="1502"/>
      <point x="835" y="1502" type="curve"/>
      <point x="536" y="1502"/>
      <point x="407" y="1429"/>
      <point x="283" y="1423" type="curve"/>
      <point x="235" y="1139" type="line"/>
      <point x="323" y="1139" type="line"/>
      <point x="385" y="1311" type="line"/>
      <point x="448" y="1356"/>
      <point x="587" y="1413"/>
      <point x="792" y="1413" type="curve"/>
      <point x="1030" y="1413"/>
      <point x="1208" y="1230"/>
      <point x="1213" y="890" type="curve"/>
      <point x="1213" y="842"/>
      <point x="1212" y="796"/>
      <point x="1207" y="752" type="curve"/>
      <point x="163" y="751" type="line"/>
      <point x="139" y="695"/>
      <point x="124" y="582"/>
      <point x="125" y="468" type="curve"/>
      <point x="129" y="156"/>
      <point x="298" y="-22"/>
    </contour>
    <contour>
      <point x="641" y="70" type="curve"/>
      <point x="405" y="70"/>
      <point x="287" y="251"/>
      <point x="285" y="442" type="curve"/>
      <point x="284" y="521"/>
      <point x="299" y="595"/>
      <point x="316" y="664" type="curve"/>
      <point x="1197" y="664" type="line"/>
      <point x="1137" y="270"/>
      <point x="914" y="70"/>
    </contour>
  </outline>
</glyph>
